# Blender v2.76 (sub 0) OBJ File: 'bowl.blend'
# www.blender.org
mtllib bowl.mtl
o bowl_Circle
v 0.000000 -0.040498 -1.000000
v -0.195090 -0.040498 -0.980785
v -0.382683 -0.040498 -0.923880
v -0.555570 -0.040498 -0.831470
v -0.707107 -0.040498 -0.707107
v -0.831470 -0.040498 -0.555570
v -0.923880 -0.040498 -0.382683
v -0.980785 -0.040498 -0.195090
v -1.000000 -0.040498 -0.000000
v -0.980785 -0.040498 0.195090
v -0.923880 -0.040498 0.382683
v -0.831470 -0.040498 0.555570
v -0.707107 -0.040498 0.707107
v -0.555570 -0.040498 0.831470
v -0.382683 -0.040498 0.923880
v -0.195090 -0.040498 0.980785
v 0.000000 -0.040498 1.000000
v 0.195091 -0.040498 0.980785
v 0.382684 -0.040498 0.923879
v 0.555571 -0.040498 0.831469
v 0.707107 -0.040498 0.707106
v 0.831470 -0.040498 0.555570
v 0.923880 -0.040498 0.382683
v 0.980785 -0.040498 0.195089
v 1.000000 -0.040498 -0.000001
v 0.980785 -0.040498 -0.195091
v 0.923879 -0.040498 -0.382684
v 0.831469 -0.040498 -0.555571
v 0.707106 -0.040498 -0.707108
v 0.555569 -0.040498 -0.831470
v 0.382682 -0.040498 -0.923880
v 0.195089 -0.040498 -0.980786
v 0.000000 0.132731 -1.026575
v -0.200275 0.132731 -1.006850
v -0.392853 0.132731 -0.948432
v -0.570335 0.132731 -0.853566
v -0.725898 0.132731 -0.725898
v -0.853566 0.132731 -0.570335
v -0.948432 0.132731 -0.392853
v -1.006850 0.132731 -0.200275
v -1.026575 0.132731 -0.000000
v -1.006850 0.132731 0.200275
v -0.948432 0.132731 0.392853
v -0.853566 0.132731 0.570335
v -0.725898 0.132731 0.725898
v -0.570335 0.132731 0.853566
v -0.392853 0.132731 0.948432
v -0.200275 0.132731 1.006850
v 0.000000 0.132731 1.026575
v 0.200275 0.132731 1.006850
v 0.392854 0.132731 0.948432
v 0.570335 0.132731 0.853566
v 0.725899 0.132731 0.725898
v 0.853566 0.132731 0.570334
v 0.948432 0.132731 0.392853
v 1.006850 0.132731 0.200274
v 1.026575 0.132731 -0.000001
v 1.006850 0.132731 -0.200276
v 0.948431 0.132731 -0.392854
v 0.853565 0.132731 -0.570336
v 0.725897 0.132731 -0.725899
v 0.570333 0.132731 -0.853567
v 0.392852 0.132731 -0.948432
v 0.200273 0.132731 -1.006850
v -0.004096 0.508791 -2.215154
v -0.442325 0.508791 -2.171992
v -0.863714 0.508791 -2.044165
v -1.252068 0.508791 -1.836586
v -1.592463 0.508791 -1.557231
v -1.871818 0.508791 -1.216836
v -2.079397 0.508791 -0.828482
v -2.207224 0.508791 -0.407093
v -2.250386 0.508791 0.031136
v -2.207224 0.508791 0.469366
v -2.079397 0.508791 0.890754
v -1.871818 0.508791 1.279108
v -1.592463 0.508791 1.619503
v -1.252068 0.508791 1.898859
v -0.863713 0.508791 2.106438
v -0.442325 0.508791 2.234265
v -0.004095 0.508791 2.277427
v 0.434135 0.508791 2.234265
v 0.855523 0.508791 2.106437
v 1.243877 0.508791 1.898858
v 1.584273 0.508791 1.619503
v 1.863627 0.508791 1.279107
v 2.071207 0.508791 0.890753
v 2.199033 0.508791 0.469364
v 2.242195 0.508791 0.031134
v 2.199033 0.508791 -0.407095
v 2.071205 0.508791 -0.828484
v 1.863625 0.508791 -1.216838
v 1.584270 0.508791 -1.557233
v 1.243874 0.508791 -1.836588
v 0.855519 0.508791 -2.044167
v 0.434130 0.508791 -2.171993
v -0.000121 0.016775 -0.910724
v -0.177973 0.016775 -0.893207
v -0.348991 0.016775 -0.841330
v -0.506601 0.016775 -0.757085
v -0.644748 0.016775 -0.643711
v -0.758123 0.016775 -0.505564
v -0.842367 0.016775 -0.347953
v -0.894245 0.016775 -0.176935
v -0.911762 0.016775 0.000917
v -0.894245 0.016775 0.178769
v -0.842367 0.016775 0.349787
v -0.758123 0.016775 0.507398
v -0.644748 0.016775 0.645545
v -0.506601 0.016775 0.758919
v -0.348990 0.016775 0.843164
v -0.177973 0.016775 0.895041
v -0.000120 0.016775 0.912558
v 0.177732 0.016775 0.895041
v 0.348750 0.016775 0.843163
v 0.506361 0.016775 0.758919
v 0.644507 0.016775 0.645544
v 0.757882 0.016775 0.507397
v 0.842126 0.016775 0.349786
v 0.894004 0.016775 0.178769
v 0.911521 0.016775 0.000916
v 0.894004 0.016775 -0.176936
v 0.842126 0.016775 -0.347954
v 0.757881 0.016775 -0.505565
v 0.644506 0.016775 -0.643712
v 0.506359 0.016775 -0.757086
v 0.348748 0.016775 -0.841330
v 0.177730 0.016775 -0.893208
v -0.000121 0.132731 -0.934951
v -0.182699 0.132731 -0.916969
v -0.358262 0.132731 -0.863712
v -0.520061 0.132731 -0.777229
v -0.661879 0.132731 -0.660842
v -0.778267 0.132731 -0.519024
v -0.864750 0.132731 -0.357224
v -0.918006 0.132731 -0.181662
v -0.935989 0.132731 0.000917
v -0.918007 0.132731 0.183496
v -0.864750 0.132731 0.359058
v -0.778267 0.132731 0.520858
v -0.661879 0.132731 0.662676
v -0.520061 0.132731 0.779063
v -0.358262 0.132731 0.865547
v -0.182699 0.132731 0.918803
v -0.000120 0.132731 0.936785
v 0.182459 0.132731 0.918803
v 0.358021 0.132731 0.865546
v 0.519820 0.132731 0.779063
v 0.661639 0.132731 0.662675
v 0.778026 0.132731 0.520857
v 0.864509 0.132731 0.359058
v 0.917765 0.132731 0.183495
v 0.935748 0.132731 0.000916
v 0.917765 0.132731 -0.181663
v 0.864509 0.132731 -0.357225
v 0.778025 0.132731 -0.519024
v 0.661637 0.132731 -0.660843
v 0.519819 0.132731 -0.777230
v 0.358019 0.132731 -0.863713
v 0.182457 0.132731 -0.916969
v -0.003854 0.508791 -2.018509
v -0.403363 0.508791 -1.979161
v -0.787518 0.508791 -1.862628
v -1.141557 0.508791 -1.673391
v -1.451875 0.508791 -1.418719
v -1.706547 0.508791 -1.108401
v -1.895785 0.508791 -0.754361
v -2.012317 0.508791 -0.370206
v -2.051665 0.508791 0.029302
v -2.012317 0.508791 0.428810
v -1.895785 0.508791 0.812965
v -1.706547 0.508791 1.167005
v -1.451875 0.508791 1.477323
v -1.141557 0.508791 1.731995
v -0.787517 0.508791 1.921233
v -0.403362 0.508791 2.037765
v -0.003854 0.508791 2.077113
v 0.395654 0.508791 2.037765
v 0.779810 0.508791 1.921232
v 1.133849 0.508791 1.731994
v 1.444167 0.508791 1.477322
v 1.698839 0.508791 1.167004
v 1.888077 0.508791 0.812964
v 2.004609 0.508791 0.428809
v 2.043957 0.508791 0.029300
v 2.004608 0.508791 -0.370208
v 1.888075 0.508791 -0.754363
v 1.698837 0.508791 -1.108403
v 1.444165 0.508791 -1.418720
v 1.133846 0.508791 -1.673392
v 0.779806 0.508791 -1.862630
v 0.395651 0.508791 -1.979161
vn -0.131400 -0.739100 -0.660600
vn 0.000000 -0.739100 -0.673500
vn 0.131400 -0.739100 -0.660600
vn 0.257700 -0.739100 -0.622200
vn 0.374200 -0.739100 -0.560000
vn 0.476200 -0.739100 -0.476200
vn 0.560000 -0.739100 -0.374200
vn 0.622200 -0.739100 -0.257700
vn 0.660600 -0.739100 -0.131400
vn 0.673500 -0.739100 0.000000
vn 0.660600 -0.739100 0.131400
vn 0.622200 -0.739100 0.257700
vn 0.560000 -0.739100 0.374200
vn 0.476200 -0.739100 0.476200
vn 0.374200 -0.739100 0.560000
vn 0.257700 -0.739100 0.622200
vn 0.131400 -0.739100 0.660600
vn 0.000000 -0.739100 0.673500
vn -0.131400 -0.739100 0.660600
vn -0.257700 -0.739100 0.622200
vn -0.374200 -0.739100 0.560000
vn -0.476200 -0.739100 0.476200
vn -0.560000 -0.739100 0.374200
vn -0.622200 -0.739100 0.257700
vn -0.660600 -0.739100 0.131400
vn -0.673500 -0.739100 0.000000
vn -0.660600 -0.739100 -0.131400
vn -0.622200 -0.739100 -0.257700
vn -0.560000 -0.739100 -0.374200
vn -0.476200 -0.739100 -0.476200
vn -0.374200 -0.739100 -0.560000
vn -0.257700 -0.739100 -0.622200
vn -0.741800 -0.670500 -0.000300
vn -0.727200 -0.671100 0.144400
vn -0.970900 0.139500 0.194500
vn -0.990100 0.140200 0.001400
vn -0.283200 -0.672900 0.683400
vn -0.411200 -0.672700 0.615100
vn -0.145200 -0.667400 -0.730400
vn 0.000000 -0.667300 -0.744800
vn 0.526100 -0.667900 -0.526400
vn 0.618400 -0.668300 -0.413500
vn -0.144300 -0.673000 0.725500
vn -0.284700 -0.667600 -0.687900
vn 0.413500 -0.667500 -0.619100
vn 0.000000 -0.672900 0.739700
vn -0.413300 -0.668000 -0.618900
vn 0.284900 -0.667300 -0.688100
vn 0.144400 -0.672800 0.725500
vn -0.525700 -0.668400 -0.526100
vn 0.145300 -0.667300 -0.730500
vn 0.283300 -0.672600 0.683600
vn -0.617900 -0.668900 -0.413200
vn 0.411400 -0.672300 0.615400
vn -0.686200 -0.669400 -0.284600
vn 0.523900 -0.671900 0.523500
vn -0.728000 -0.670000 -0.145100
vn 0.616300 -0.671400 0.411500
vn 0.685200 -0.670900 0.283500
vn 0.727800 -0.670300 0.144400
vn -0.684600 -0.671600 0.283300
vn 0.742500 -0.669800 -0.000300
vn -0.615800 -0.672000 0.411200
vn 0.728700 -0.669200 -0.145200
vn -0.523500 -0.672400 0.523200
vn 0.686800 -0.668700 -0.284800
vn 0.970800 0.140400 0.194500
vn 0.914300 0.139700 0.380100
vn -0.914500 0.138900 0.380000
vn 0.990000 0.141100 0.001400
vn -0.822900 0.138400 0.551100
vn 0.971100 0.141700 -0.191800
vn -0.699700 0.138000 0.700900
vn 0.914900 0.142300 -0.377600
vn -0.549800 0.137600 0.823900
vn 0.823500 0.142900 -0.549000
vn -0.378700 0.137400 0.915200
vn -0.193500 0.143900 -0.970500
vn -0.000200 0.144000 -0.989600
vn 0.700400 0.143300 -0.699200
vn -0.193200 0.137300 0.971500
vn -0.379300 0.143600 -0.914000
vn 0.550300 0.143700 -0.822500
vn -0.000200 0.137300 0.990500
vn -0.550600 0.143200 -0.822400
vn 0.379000 0.144000 -0.914100
vn 0.192800 0.137500 0.971600
vn -0.700600 0.142700 -0.699100
vn 0.193100 0.144100 -0.970500
vn 0.378400 0.137700 0.915300
vn -0.823700 0.142100 -0.548900
vn 0.549500 0.138100 0.824000
vn -0.915100 0.141500 -0.377600
vn 0.699500 0.138600 0.701000
vn -0.971300 0.140800 -0.191700
vn 0.822700 0.139100 0.551200
vn 0.733600 0.679500 0.000300
vn 0.152000 0.988400 -0.000200
vn 0.148300 0.988500 -0.029700
vn 0.719100 0.680100 -0.142700
vn 0.362900 0.757100 -0.543200
vn 0.406500 0.681800 -0.608100
vn 0.279900 0.682000 -0.675600
vn 0.250000 0.757100 -0.603500
vn 0.000000 0.757100 0.653200
vn -0.000000 0.676000 0.736800
vn 0.143600 0.676200 0.722600
vn 0.127400 0.757100 0.640700
vn -0.543200 0.757100 0.362900
vn -0.611700 0.677100 0.409000
vn -0.520500 0.676700 0.520800
vn -0.461900 0.757100 0.461900
vn 0.142700 0.682100 -0.717200
vn 0.127400 0.757100 -0.640700
vn 0.281700 0.676400 0.680500
vn 0.250000 0.757100 0.603500
vn -0.409100 0.676400 0.612500
vn -0.362900 0.757100 0.543200
vn -0.000000 0.682100 -0.731300
vn 0.000000 0.757100 -0.653200
vn 0.408800 0.676800 0.612200
vn 0.362900 0.757100 0.543200
vn -0.281900 0.676100 0.680700
vn -0.250000 0.757100 0.603500
vn -0.142800 0.681900 -0.717300
vn -0.127400 0.757100 -0.640700
vn 0.520000 0.677200 0.520400
vn 0.461900 0.757100 0.461900
vn -0.143700 0.676000 0.722700
vn -0.127400 0.757100 0.640700
vn -0.280100 0.681700 -0.675800
vn -0.250000 0.757100 -0.603500
vn 0.611200 0.677800 0.408700
vn 0.543200 0.757100 0.362900
vn -0.406800 0.681400 -0.608400
vn -0.362900 0.757100 -0.543200
vn 0.678700 0.678300 0.281400
vn 0.603500 0.757100 0.250000
vn -0.518000 0.681000 -0.517600
vn -0.461900 0.757100 -0.461900
vn 0.720000 0.678900 0.143500
vn 0.640700 0.757100 0.127400
vn -0.609400 0.680500 -0.406800
vn -0.543200 0.757100 -0.362900
vn 0.653200 0.757100 0.000000
vn -0.677600 0.679900 -0.280300
vn -0.603500 0.757100 -0.250000
vn 0.640700 0.757100 -0.127400
vn -0.719800 0.679300 -0.142800
vn -0.640700 0.757100 -0.127400
vn 0.676900 0.680600 -0.280100
vn 0.603500 0.757100 -0.250000
vn -0.734400 0.678700 0.000300
vn -0.653200 0.757100 0.000000
vn 0.608900 0.681100 -0.406600
vn 0.543200 0.757100 -0.362900
vn -0.720700 0.678200 0.143700
vn -0.640700 0.757100 0.127400
vn 0.517600 0.681500 -0.517300
vn 0.461900 0.757100 -0.461900
vn -0.679300 0.677600 0.281700
vn -0.603500 0.757100 0.250000
vn -0.139900 0.988400 -0.058100
vn -0.149200 0.988300 -0.029900
vn 0.139100 0.988600 -0.057800
vn -0.152900 0.988200 -0.000200
vn 0.124700 0.988600 -0.083500
vn -0.150700 0.988100 0.029800
vn 0.105700 0.988700 -0.105900
vn -0.142600 0.988000 0.058800
vn 0.082800 0.988800 -0.124100
vn -0.128800 0.987900 0.085900
vn 0.056900 0.988800 -0.137700
vn 0.000000 0.987700 0.156100
vn 0.030500 0.987800 0.152900
vn -0.109900 0.987900 0.109700
vn 0.029000 0.988800 -0.146000
vn 0.059600 0.987800 0.143700
vn -0.086600 0.987800 0.129400
vn 0.000000 0.988800 -0.148900
vn 0.086300 0.987900 0.128900
vn -0.059800 0.987700 0.144100
vn -0.029000 0.988800 -0.146200
vn 0.109500 0.987900 0.109200
vn -0.030500 0.987700 0.153100
vn -0.057000 0.988800 -0.138000
vn 0.128200 0.988000 0.085400
vn -0.083100 0.988700 -0.124600
vn 0.141800 0.988200 0.058500
vn -0.106100 0.988600 -0.106400
vn 0.149800 0.988300 0.029600
vn -0.125300 0.988600 -0.083900
usemtl None
s 1
f 2//1 1//2 32//3 31//4 30//5 29//6 28//7 27//8 26//9 25//10 24//11 23//12 22//13 21//14 20//15 19//16 18//17 17//18 16//19 15//20 14//21 13//22 12//23 11//24 10//25 9//26 8//27 7//28 6//29 5//30 4//31 3//32
f 41//33 42//34 74//35 73//36
f 14//21 15//20 47//37 46//38
f 1//2 2//1 34//39 33//40
f 28//7 29//6 61//41 60//42
f 15//20 16//19 48//43 47//37
f 2//1 3//32 35//44 34//39
f 29//6 30//5 62//45 61//41
f 16//19 17//18 49//46 48//43
f 3//32 4//31 36//47 35//44
f 30//5 31//4 63//48 62//45
f 17//18 18//17 50//49 49//46
f 4//31 5//30 37//50 36//47
f 31//4 32//3 64//51 63//48
f 18//17 19//16 51//52 50//49
f 5//30 6//29 38//53 37//50
f 32//3 1//2 33//40 64//51
f 19//16 20//15 52//54 51//52
f 6//29 7//28 39//55 38//53
f 20//15 21//14 53//56 52//54
f 7//28 8//27 40//57 39//55
f 21//14 22//13 54//58 53//56
f 8//27 9//26 41//33 40//57
f 22//13 23//12 55//59 54//58
f 9//26 10//25 42//34 41//33
f 23//12 24//11 56//60 55//59
f 10//25 11//24 43//61 42//34
f 24//11 25//10 57//62 56//60
f 11//24 12//23 44//63 43//61
f 25//10 26//9 58//64 57//62
f 12//23 13//22 45//65 44//63
f 26//9 27//8 59//66 58//64
f 13//22 14//21 46//38 45//65
f 27//8 28//7 60//42 59//66
f 55//59 56//60 88//67 87//68
f 42//34 43//61 75//69 74//35
f 56//60 57//62 89//70 88//67
f 43//61 44//63 76//71 75//69
f 57//62 58//64 90//72 89//70
f 44//63 45//65 77//73 76//71
f 58//64 59//66 91//74 90//72
f 45//65 46//38 78//75 77//73
f 59//66 60//42 92//76 91//74
f 46//38 47//37 79//77 78//75
f 33//40 34//39 66//78 65//79
f 60//42 61//41 93//80 92//76
f 47//37 48//43 80//81 79//77
f 34//39 35//44 67//82 66//78
f 61//41 62//45 94//83 93//80
f 48//43 49//46 81//84 80//81
f 35//44 36//47 68//85 67//82
f 62//45 63//48 95//86 94//83
f 49//46 50//49 82//87 81//84
f 36//47 37//50 69//88 68//85
f 63//48 64//51 96//89 95//86
f 50//49 51//52 83//90 82//87
f 37//50 38//53 70//91 69//88
f 64//51 33//40 65//79 96//89
f 51//52 52//54 84//92 83//90
f 38//53 39//55 71//93 70//91
f 52//54 53//56 85//94 84//92
f 39//55 40//57 72//95 71//93
f 53//56 54//58 86//96 85//94
f 40//57 41//33 73//36 72//95
f 54//58 55//59 87//68 86//96
f 137//97 169//98 170//99 138//100
f 110//101 142//102 143//103 111//104
f 97//105 129//106 130//107 98//108
f 124//109 156//110 157//111 125//112
f 111//104 143//103 144//113 112//114
f 98//108 130//107 131//115 99//116
f 125//112 157//111 158//117 126//118
f 112//114 144//113 145//119 113//120
f 99//116 131//115 132//121 100//122
f 126//118 158//117 159//123 127//124
f 113//120 145//119 146//125 114//126
f 100//122 132//121 133//127 101//128
f 127//124 159//123 160//129 128//130
f 114//126 146//125 147//131 115//132
f 101//128 133//127 134//133 102//134
f 128//130 160//129 129//106 97//105
f 115//132 147//131 148//135 116//136
f 102//134 134//133 135//137 103//138
f 116//136 148//135 149//139 117//140
f 103//138 135//137 136//141 104//142
f 117//140 149//139 150//143 118//144
f 104//142 136//141 137//97 105//145
f 118//144 150//143 151//146 119//147
f 105//145 137//97 138//100 106//148
f 119//147 151//146 152//149 120//150
f 106//148 138//100 139//151 107//152
f 120//150 152//149 153//153 121//154
f 107//152 139//151 140//155 108//156
f 121//154 153//153 154//157 122//158
f 108//156 140//155 141//159 109//160
f 122//158 154//157 155//161 123//162
f 109//160 141//159 142//102 110//101
f 123//162 155//161 156//110 124//109
f 151//146 183//163 184//164 152//149
f 138//100 170//99 171//165 139//151
f 152//149 184//164 185//166 153//153
f 139//151 171//165 172//167 140//155
f 153//153 185//166 186//168 154//157
f 140//155 172//167 173//169 141//159
f 154//157 186//168 187//170 155//161
f 141//159 173//169 174//171 142//102
f 155//161 187//170 188//172 156//110
f 142//102 174//171 175//173 143//103
f 129//106 161//174 162//175 130//107
f 156//110 188//172 189//176 157//111
f 143//103 175//173 176//177 144//113
f 130//107 162//175 163//178 131//115
f 157//111 189//176 190//179 158//117
f 144//113 176//177 177//180 145//119
f 131//115 163//178 164//181 132//121
f 158//117 190//179 191//182 159//123
f 145//119 177//180 178//183 146//125
f 132//121 164//181 165//184 133//127
f 159//123 191//182 192//185 160//129
f 146//125 178//183 179//186 147//131
f 133//127 165//184 166//187 134//133
f 160//129 192//185 161//174 129//106
f 147//131 179//186 180//188 148//135
f 134//133 166//187 167//189 135//137
f 148//135 180//188 181//190 149//139
f 135//137 167//189 168//191 136//141
f 149//139 181//190 182//192 150//143
f 136//141 168//191 169//98 137//97
f 150//143 182//192 183//163 151//146
f 84//92 180//188 179//186 83//90
f 71//93 167//189 166//187 70//91
f 85//94 181//190 180//188 84//92
f 72//95 168//191 167//189 71//93
f 86//96 182//192 181//190 85//94
f 73//36 169//98 168//191 72//95
f 87//68 183//163 182//192 86//96
f 74//35 170//99 169//98 73//36
f 88//67 184//164 183//163 87//68
f 75//69 171//165 170//99 74//35
f 89//70 185//166 184//164 88//67
f 76//71 172//167 171//165 75//69
f 90//72 186//168 185//166 89//70
f 77//73 173//169 172//167 76//71
f 91//74 187//170 186//168 90//72
f 78//75 174//171 173//169 77//73
f 92//76 188//172 187//170 91//74
f 79//77 175//173 174//171 78//75
f 66//78 162//175 161//174 65//79
f 93//80 189//176 188//172 92//76
f 80//81 176//177 175//173 79//77
f 67//82 163//178 162//175 66//78
f 94//83 190//179 189//176 93//80
f 81//84 177//180 176//177 80//81
f 68//85 164//181 163//178 67//82
f 95//86 191//182 190//179 94//83
f 82//87 178//183 177//180 81//84
f 69//88 165//184 164//181 68//85
f 96//89 192//185 191//182 95//86
f 83//90 179//186 178//183 82//87
f 70//91 166//187 165//184 69//88
f 65//79 161//174 192//185 96//89
f 98//108 99//116 100//122 101//128 102//134 103//138 104//142 105//145 106//148 107//152 108//156 109//160 110//101 111//104 112//114 113//120 114//126 115//132 116//136 117//140 118//144 119//147 120//150 121//154 122//158 123//162 124//109 125//112 126//118 127//124 128//130 97//105
o water_Circle.001
v 0.000000 0.304745 -1.507788
v -0.294155 0.304745 -1.478816
v -0.577006 0.304745 -1.393014
v -0.837682 0.304745 -1.253680
v -1.066167 0.304745 -1.066167
v -1.253680 0.304745 -0.837682
v -1.393015 0.304745 -0.577006
v -1.478816 0.304745 -0.294155
v -1.507788 0.304745 -0.000000
v -1.478816 0.304745 0.294155
v -1.393015 0.304745 0.577005
v -1.253680 0.304745 0.837682
v -1.066167 0.304745 1.066167
v -0.837682 0.304745 1.253680
v -0.577005 0.304745 1.393015
v -0.294154 0.304745 1.478816
v 0.000000 0.304745 1.507788
v 0.294155 0.304745 1.478816
v 0.577006 0.304745 1.393014
v 0.837683 0.304745 1.253680
v 1.066168 0.304745 1.066167
v 1.253681 0.304745 0.837681
v 1.393015 0.304745 0.577004
v 1.478817 0.304745 0.294154
v 1.507788 0.304745 -0.000001
v 1.478816 0.304745 -0.294156
v 1.393014 0.304745 -0.577007
v 1.253679 0.304745 -0.837684
v 1.066166 0.304745 -1.066168
v 0.837680 0.304745 -1.253681
v 0.577003 0.304745 -1.393015
v 0.294153 0.304745 -1.478817
vn 0.000000 1.000000 0.000000
usemtl None
s 1
f 194//193 195//193 196//193 197//193 198//193 199//193 200//193 201//193 202//193 203//193 204//193 205//193 206//193 207//193 208//193 209//193 210//193 211//193 212//193 213//193 214//193 215//193 216//193 217//193 218//193 219//193 220//193 221//193 222//193 223//193 224//193 193//193
