# Blender v2.74 (sub 0) OBJ File: 'room.blend'
# www.blender.org
mtllib pedestal.mtl
o Cube_Cube.008
v -0.250000 0.000000 0.250000
v -0.250000 1.000000 0.250000
v -0.250000 0.000000 -0.250000
v -0.250000 1.000000 -0.250000
v 0.250000 0.000000 0.250000
v 0.250000 1.000000 0.250000
v 0.250000 0.000000 -0.250000
v 0.250000 1.000000 -0.250000
v -0.275000 1.000000 0.275000
v -0.275000 1.000000 -0.275000
v 0.275000 1.000000 -0.275000
v 0.275000 1.000000 0.275000
v -0.275000 1.100000 0.275000
v -0.275000 1.100000 -0.275000
v 0.275000 1.100000 -0.275000
v 0.275000 1.100000 0.275000
v -0.300000 1.100000 0.300000
v -0.300000 1.100000 -0.300000
v 0.300000 1.100000 -0.300000
v 0.300000 1.100000 0.300000
v -0.300000 1.200000 0.300000
v -0.300000 1.200000 -0.300000
v 0.300000 1.200000 -0.300000
v 0.300000 1.200000 0.300000
v -0.275000 0.000000 -0.275000
v -0.275000 0.000000 0.275000
v 0.275000 0.000000 -0.275000
v 0.275000 0.000000 0.275000
v -0.275000 -0.100000 -0.275000
v -0.275000 -0.100000 0.275000
v 0.275000 -0.100000 -0.275000
v 0.275000 -0.100000 0.275000
vt 0.285796 0.856177
vt 0.064547 0.856177
vt 0.064547 0.413678
vt 0.285796 0.413678
vt 0.565580 0.631187
vt 0.344330 0.631187
vt 0.333268 0.642250
vt 0.576642 0.642250
vt 0.362545 0.292394
vt 0.583795 0.292394
vt 0.594857 0.303457
vt 0.351483 0.303457
vt 0.053485 0.856177
vt 0.296859 0.856177
vt 0.296859 0.900427
vt 0.053485 0.900427
vt 0.583795 0.071145
vt 0.594857 0.060082
vt 0.362545 0.071145
vt 0.351483 0.060082
vt 0.052762 0.292528
vt 0.296136 0.292528
vt 0.307199 0.303590
vt 0.041700 0.303590
vt 0.042422 0.900427
vt 0.307921 0.900427
vt 0.307921 0.944677
vt 0.042422 0.944677
vt 0.296136 0.049154
vt 0.307199 0.038091
vt 0.052762 0.049154
vt 0.041700 0.038091
vt 0.598634 0.685935
vt 0.598634 0.951434
vt 0.333134 0.951434
vt 0.333134 0.685935
vt 0.296859 0.413678
vt 0.053485 0.413678
vt 0.053485 0.369428
vt 0.296859 0.369428
vt 0.565580 0.409938
vt 0.576642 0.398875
vt 0.344330 0.409938
vt 0.333268 0.398875
vt 0.022183 -0.203842
vn -1.000000 0.000000 0.000000
vn 0.000000 0.000000 -1.000000
vn 1.000000 0.000000 0.000000
vn 0.000000 0.000000 1.000000
vn 0.000000 1.000000 0.000000
vn 0.000000 -1.000000 0.000000
usemtl None
s off
f 2/1/1 4/2/1 3/3/1 1/4/1
f 4/1/2 8/2/2 7/3/2 3/4/2
f 8/1/3 6/2/3 5/3/3 7/4/3
f 6/1/4 2/2/4 1/3/4 5/4/4
f 5/5/5 1/6/5 26/7/5 28/8/5
f 2/9/6 6/10/6 12/11/6 9/12/6
f 9/13/4 12/14/4 16/15/4 13/16/4
f 6/10/6 8/17/6 11/18/6 12/11/6
f 8/17/6 4/19/6 10/20/6 11/18/6
f 4/19/6 2/9/6 9/12/6 10/20/6
f 13/21/6 16/22/6 20/23/6 17/24/6
f 12/13/3 11/14/3 15/15/3 16/16/3
f 11/13/2 10/14/2 14/15/2 15/16/2
f 10/13/1 9/14/1 13/15/1 14/16/1
f 17/25/4 20/26/4 24/27/4 21/28/4
f 16/22/6 15/29/6 19/30/6 20/23/6
f 15/29/6 14/31/6 18/32/6 19/30/6
f 14/31/6 13/21/6 17/24/6 18/32/6
f 24/33/5 23/34/5 22/35/5 21/36/5
f 20/25/3 19/26/3 23/27/3 24/28/3
f 19/25/2 18/26/2 22/27/2 23/28/2
f 18/25/1 17/26/1 21/27/1 22/28/1
f 28/37/4 26/38/4 30/39/4 32/40/4
f 7/41/5 5/5/5 28/8/5 27/42/5
f 3/43/5 7/41/5 27/42/5 25/44/5
f 1/6/5 3/43/5 25/44/5 26/7/5
f 30/45/6 29/45/6 31/45/6 32/45/6
f 27/37/3 28/38/3 32/39/3 31/40/3
f 25/37/2 27/38/2 31/39/2 29/40/2
f 26/37/1 25/38/1 29/39/1 30/40/1
