# Blender v2.74 (sub 0) OBJ File: 'room.blend'
# www.blender.org
mtllib pillar.mtl
o Pillar_Cube.007
v -1.000000 0.000000 1.000000
v -1.000000 0.500000 1.000000
v -1.000000 0.000000 -1.000000
v -1.000000 0.500000 -1.000000
v 1.000000 0.000000 1.000000
v 1.000000 0.500000 1.000000
v 1.000000 0.000000 -1.000000
v 1.000000 0.500000 -1.000000
v -0.900000 0.500000 0.900000
v -0.900000 0.500000 -0.900000
v 0.900000 0.500000 0.900000
v 0.900000 0.500000 -0.900000
v -0.900000 0.600000 0.900000
v -0.900000 0.600000 -0.900000
v 0.900000 0.600000 -0.900000
v 0.900000 0.600000 0.900000
v -0.800000 0.600000 0.800000
v -0.800000 0.600000 -0.800000
v 0.800000 0.600000 -0.800000
v 0.800000 0.600000 0.800000
v -0.800000 0.700000 0.800000
v -0.800000 0.700000 -0.800000
v 0.800000 0.700000 -0.800000
v 0.800000 0.700000 0.800000
v -0.700000 0.700000 0.700000
v -0.700000 0.700000 -0.700000
v 0.700000 0.700000 -0.700000
v 0.700000 0.700000 0.700000
v -0.700000 8.000000 0.700000
v -0.700000 8.000000 -0.700000
v 0.700000 8.000000 -0.700000
v 0.700000 8.000000 0.700000
vn -1.000000 0.000000 0.000000
vn 0.000000 0.000000 -1.000000
vn 1.000000 0.000000 0.000000
vn 0.000000 0.000000 1.000000
vn 0.000000 -1.000000 0.000000
vn 0.000000 1.000000 0.000000
usemtl None
s off
f 2//1 4//1 3//1 1//1
f 4//2 8//2 7//2 3//2
f 8//3 6//3 5//3 7//3
f 6//4 2//4 1//4 5//4
f 1//5 3//5 7//5 5//5
f 2//6 6//6 11//6 9//6
f 9//4 11//4 16//4 13//4
f 6//6 8//6 12//6 11//6
f 8//6 4//6 10//6 12//6
f 4//6 2//6 9//6 10//6
f 13//6 16//6 20//6 17//6
f 11//3 12//3 15//3 16//3
f 12//2 10//2 14//2 15//2
f 10//1 9//1 13//1 14//1
f 17//4 20//4 24//4 21//4
f 16//6 15//6 19//6 20//6
f 15//6 14//6 18//6 19//6
f 14//6 13//6 17//6 18//6
f 21//6 24//6 28//6 25//6
f 20//3 19//3 23//3 24//3
f 19//2 18//2 22//2 23//2
f 18//1 17//1 21//1 22//1
f 25//4 28//4 32//4 29//4
f 24//6 23//6 27//6 28//6
f 23//6 22//6 26//6 27//6
f 22//6 21//6 25//6 26//6
f 32//6 31//6 30//6 29//6
f 28//3 27//3 31//3 32//3
f 27//2 26//2 30//2 31//2
f 26//1 25//1 29//1 30//1
