# Blender v2.74 (sub 0) OBJ File: 'room.blend'
# www.blender.org
mtllib pillar.mtl
o Pillar_Cube.007
v -1.000000 0.000000 1.000000
v -1.000000 0.500000 1.000000
v -1.000000 0.000000 -1.000000
v -1.000000 0.500000 -1.000000
v 1.000000 0.000000 1.000000
v 1.000000 0.500000 1.000000
v 1.000000 0.000000 -1.000000
v 1.000000 0.500000 -1.000000
v -0.900000 0.500000 0.900000
v -0.900000 0.500000 -0.900000
v 0.900000 0.500000 0.900000
v 0.900000 0.500000 -0.900000
v -0.900000 0.600000 0.900000
v -0.900000 0.600000 -0.900000
v 0.900000 0.600000 -0.900000
v 0.900000 0.600000 0.900000
v -0.800000 0.600000 0.800000
v -0.800000 0.600000 -0.800000
v 0.800000 0.600000 -0.800000
v 0.800000 0.600000 0.800000
v -0.800000 0.700000 0.800000
v -0.800000 0.700000 -0.800000
v 0.800000 0.700000 -0.800000
v 0.800000 0.700000 0.800000
v -0.700000 0.700000 0.700000
v -0.700000 0.700000 -0.700000
v 0.700000 0.700000 -0.700000
v 0.700000 0.700000 0.700000
v -0.700000 8.000000 0.700000
v -0.700000 8.000000 -0.700000
v 0.700000 8.000000 -0.700000
v 0.700000 8.000000 0.700000
vt 0.492194 0.137885
vt 0.289056 0.137885
vt 0.289056 0.087101
vt 0.492194 0.087101
vt 0.218756 0.137885
vt 0.015619 0.137885
vt 0.015619 0.087101
vt 0.218756 0.087101
vt 0.000000 0.000000
vt 0.572607 0.032835
vt 0.775744 0.032835
vt 0.765587 0.042992
vt 0.582764 0.042992
vt 0.025776 0.137885
vt 0.208599 0.137885
vt 0.208599 0.148042
vt 0.025776 0.148042
vt 0.775744 0.235972
vt 0.765587 0.225815
vt 0.572607 0.235972
vt 0.582764 0.225815
vt 0.561061 0.387135
vt 0.743885 0.387135
vt 0.733728 0.397292
vt 0.571218 0.397292
vt 0.299213 0.137885
vt 0.482037 0.137885
vt 0.482037 0.148042
vt 0.299213 0.148042
vt 0.198442 0.148042
vt 0.035933 0.148042
vt 0.035933 0.158199
vt 0.198442 0.158199
vt 0.743885 0.569959
vt 0.733728 0.559802
vt 0.561061 0.569959
vt 0.571218 0.559802
vt 0.540214 0.753837
vt 0.702724 0.753837
vt 0.692567 0.763994
vt 0.550371 0.763994
vt 0.309370 0.148042
vt 0.471880 0.148042
vt 0.471880 0.158199
vt 0.309370 0.158199
vt 0.188286 0.158199
vt 0.046089 0.158199
vt 0.046089 0.899649
vt 0.188286 0.899649
vt 0.702724 0.916347
vt 0.692567 0.906190
vt 0.540214 0.916347
vt 0.550371 0.906190
vt 0.319527 0.158199
vt 0.461723 0.158199
vt 0.461723 0.899649
vt 0.319527 0.899649
vn -1.000000 0.000000 0.000000
vn 0.000000 0.000000 -1.000000
vn 1.000000 0.000000 0.000000
vn 0.000000 0.000000 1.000000
vn 0.000000 -1.000000 0.000000
vn 0.000000 1.000000 0.000000
usemtl None
s off
f 2/1/1 4/2/1 3/3/1 1/4/1
f 4/5/2 8/6/2 7/7/2 3/8/2
f 8/1/3 6/2/3 5/3/3 7/4/3
f 6/6/4 2/5/4 1/8/4 5/7/4
f 1/9/5 3/9/5 7/9/5 5/9/5
f 2/10/6 6/11/6 11/12/6 9/13/6
f 9/14/4 11/15/4 16/16/4 13/17/4
f 6/11/6 8/18/6 12/19/6 11/12/6
f 8/18/6 4/20/6 10/21/6 12/19/6
f 4/20/6 2/10/6 9/13/6 10/21/6
f 13/22/6 16/23/6 20/24/6 17/25/6
f 11/26/3 12/27/3 15/28/3 16/29/3
f 12/14/2 10/15/2 14/16/2 15/17/2
f 10/26/1 9/27/1 13/28/1 14/29/1
f 17/30/4 20/31/4 24/32/4 21/33/4
f 16/23/6 15/34/6 19/35/6 20/24/6
f 15/34/6 14/36/6 18/37/6 19/35/6
f 14/36/6 13/22/6 17/25/6 18/37/6
f 21/38/6 24/39/6 28/40/6 25/41/6
f 20/42/3 19/43/3 23/44/3 24/45/3
f 19/31/2 18/30/2 22/33/2 23/32/2
f 18/42/1 17/43/1 21/44/1 22/45/1
f 25/46/4 28/47/4 32/48/4 29/49/4
f 24/39/6 23/50/6 27/51/6 28/40/6
f 23/50/6 22/52/6 26/53/6 27/51/6
f 22/52/6 21/38/6 25/41/6 26/53/6
f 32/9/6 31/9/6 30/9/6 29/9/6
f 28/54/3 27/55/3 31/56/3 32/57/3
f 27/47/2 26/46/2 30/49/2 31/48/2
f 26/54/1 25/55/1 29/56/1 30/57/1
