# Blender v2.74 (sub 0) OBJ File: 'room.blend'
# www.blender.org
mtllib room.mtl
o Room_Cube.001
v -12.000000 0.500000 22.500000
v -12.000000 0.000000 22.500000
v -12.000000 0.000000 -22.500000
v -12.000000 0.500000 -22.500000
v -12.000000 5.000000 22.500000
v -12.000000 5.000000 -22.500000
v -8.000000 0.500000 22.500000
v -8.000000 0.000000 22.500000
v -8.000000 0.000000 -22.500000
v -8.000000 0.500000 -22.500000
v -12.000000 8.000000 22.500000
v -12.000000 6.000000 -22.500000
v -8.000000 3.681175 22.500000
v -8.236938 5.000000 22.500000
v -8.236938 3.681175 22.500000
v -8.118469 3.681175 22.500000
v -8.000000 5.000000 -22.500000
v 8.000000 0.500000 22.500000
v 8.000000 0.000000 22.500000
v 8.000000 0.000000 -22.500000
v 8.000000 0.500000 -22.500000
v -8.000000 8.000000 22.500000
v -8.000000 6.000000 -22.500000
v -8.000000 6.681175 22.500000
v -8.118469 6.542028 22.500000
v -8.236938 6.152415 22.500000
v -8.118469 3.681175 22.599148
v -8.000000 3.681175 22.600000
v 8.000000 3.681175 22.500000
v -7.881531 3.681175 22.500000
v -7.763061 3.681175 22.500000
v -7.763061 5.000000 22.500000
v -4.236939 5.000000 22.500000
v -4.236939 3.681175 22.500000
v -4.118469 3.681175 22.500000
v -4.000000 3.681175 22.500000
v -3.881531 3.681175 22.500000
v -3.763061 3.681175 22.500000
v -3.763061 5.000000 22.500000
v -0.236939 5.000000 22.500000
v -0.236939 3.681175 22.500000
v -0.118469 3.681175 22.500000
v 0.000000 3.681175 22.500000
v 0.118469 3.681175 22.500000
v 0.236939 3.681175 22.500000
v 0.236939 5.000000 22.500000
v 3.763061 5.000000 22.500000
v 3.763061 3.681175 22.500000
v 3.881531 3.681175 22.500000
v 4.000000 3.681175 22.500000
v 4.118469 3.681175 22.500000
v 4.236939 3.681175 22.500000
v 4.236939 5.000000 22.500000
v 7.763061 5.000000 22.500000
v 7.763061 3.681175 22.500000
v 7.881531 3.681175 22.500000
v -8.236938 6.152415 22.587677
v -8.236938 5.178638 22.597464
v -8.236938 5.000000 22.598295
v -8.236938 3.681175 22.598295
v -8.000000 0.500000 -23.000000
v -8.000000 5.000000 -23.000000
v 12.000000 0.500000 22.500000
v 12.000000 0.000000 22.500000
v 12.000000 0.000000 -22.500000
v 8.000000 0.500000 -23.000000
v 12.000000 0.500000 -22.500000
v 8.000000 8.000000 22.500000
v 8.000000 6.000000 -22.500000
v 8.000000 6.681175 22.500000
v 7.881531 6.542028 22.500000
v 7.763061 6.152415 22.500000
v 4.236939 6.152415 22.500000
v 4.118469 6.542028 22.500000
v 4.000000 6.681175 22.500000
v 3.881531 6.542028 22.500000
v 3.763061 6.152415 22.500000
v 0.236939 6.152415 22.500000
v 0.118469 6.542028 22.500000
v 0.000000 6.681175 22.500000
v -0.118469 6.542028 22.500000
v -0.236939 6.152415 22.500000
v -3.763061 6.152415 22.500000
v -3.881531 6.542028 22.500000
v -4.000000 6.681175 22.500000
v -4.118469 6.542028 22.500000
v -4.236939 6.152415 22.500000
v -7.763061 6.152415 22.500000
v -7.881531 6.542028 22.500000
v -8.000000 6.681175 22.583103
v -8.118469 6.542028 22.584131
v 8.000000 5.000000 -22.500000
v -12.070708 5.000000 22.570709
v -12.070708 0.500000 22.570709
v -8.000000 0.500000 22.600000
v -7.881531 3.681175 22.600000
v 7.881531 3.681175 22.600000
v 8.000000 3.681175 22.600000
v 12.000000 5.000000 22.500000
v 8.118469 3.681175 22.500000
v 8.236938 3.681175 22.500000
v 8.236938 5.000000 22.500000
v -7.763061 3.681175 22.600000
v -7.763061 5.000000 22.600000
v -7.763061 6.152415 22.588417
v -4.236939 6.152415 22.588417
v -4.236939 5.000000 22.600000
v -4.236939 3.681175 22.600000
v -4.118469 3.681175 22.600000
v -4.000000 3.681175 22.600000
v -3.881531 3.681175 22.600000
v -3.763061 3.681175 22.600000
v -3.763061 5.000000 22.600000
v -3.763061 6.152415 22.588417
v 3.763061 6.152415 22.588417
v 3.763061 5.000000 22.600000
v 3.763061 3.681175 22.600000
v 3.881531 3.681175 22.600000
v 4.000000 3.681175 22.600000
v 4.118469 3.681175 22.600000
v 4.236939 3.681175 22.600000
v 4.236939 5.000000 22.600000
v 4.236939 6.152415 22.588417
v 7.763061 6.152415 22.588417
v 7.763061 5.000000 22.600000
v 7.763061 3.681175 22.600000
v -12.057503 8.059117 22.556551
v -8.000000 8.072262 22.569122
v 8.000000 5.000000 -23.000000
v -8.500000 0.500000 -23.000000
v -8.500000 5.500000 -23.000000
v 0.500000 0.500000 -53.000000
v -0.500000 0.500000 -53.000000
v 12.000000 5.000000 -22.500000
v 12.000000 8.000000 22.500000
v 12.000000 6.000000 -22.500000
v 8.236938 6.152415 22.500000
v 8.118469 6.542028 22.500000
v 8.000000 6.681175 22.583103
v 7.881531 6.542028 22.584501
v 4.118469 6.542028 22.584501
v 4.000000 6.681175 22.583103
v 3.881531 6.542028 22.584501
v -3.881531 6.542028 22.584501
v -4.000000 6.681175 22.583103
v -4.118469 6.542028 22.584501
v -7.881531 6.542028 22.584501
v -12.070708 5.000000 -22.570709
v -12.070708 0.500000 -22.570709
v -8.000000 -0.070708 22.570709
v 8.000000 0.500000 22.600000
v 0.236939 5.000000 22.600000
v 0.236939 3.681175 22.600000
v 0.118469 3.681175 22.600000
v 0.000000 3.681175 22.600000
v -0.118469 3.681175 22.600000
v -0.236939 3.681175 22.600000
v -0.236939 5.000000 22.600000
v 8.118469 3.681175 22.599148
v 8.236938 3.681175 22.598295
v 8.236938 5.000000 22.598295
v 8.236938 6.152415 22.586714
v -0.236939 6.152415 22.588417
v -0.118469 6.542028 22.584501
v 0.000000 6.681175 22.583103
v 0.118469 6.542028 22.584501
v 0.236939 6.152415 22.588417
v 8.000000 8.072262 22.569122
v -8.000000 6.069121 -22.572262
v -12.057970 6.056322 -22.558880
v 8.500000 5.500000 -23.000000
v -1.000000 0.500000 -53.000000
v -1.000000 2.500000 -53.000000
v 8.500000 0.500000 -23.000000
v 1.000000 0.500000 -53.000000
v 0.500000 0.400000 -53.000000
v -0.500000 0.400000 -53.000000
v 8.118469 6.542028 22.583649
v -8.030149 5.030149 -22.590450
v -8.030149 0.469851 -22.590450
v -12.057734 -0.057735 -22.557735
v -12.057734 -0.057735 22.557735
v 8.000000 -0.070708 22.570709
v 12.070708 0.500000 22.570709
v 12.070708 5.000000 22.570709
v 8.000000 6.069121 -22.572262
v 1.000000 2.500000 -53.000000
v -1.063469 0.424372 -53.015865
v 1.063469 0.424372 -53.015865
v 8.030149 0.409549 -22.969851
v -8.030149 0.409549 -22.969851
v -8.030149 5.030149 -22.909550
v -8.000000 -0.070708 -22.570709
v 8.000000 -0.070708 -22.570709
v 12.057734 -0.057735 22.557735
v 12.070708 0.500000 -22.570709
v 12.070708 5.000000 -22.570709
v 12.057503 8.059117 22.556551
v 12.057970 6.056322 -22.558880
v 8.030149 5.030149 -22.590450
v -1.064867 2.572399 -53.023457
v 1.064867 2.572399 -53.023457
v 8.565001 0.443446 -22.949247
v -8.565001 0.443446 -22.949247
v 8.030149 0.469851 -22.590450
v 8.030149 5.030149 -22.909550
v -8.564226 5.559300 -22.951443
v 12.057734 -0.057735 -22.557735
v 8.564226 5.559300 -22.951443
vt 0.994412 0.483136
vt 1.000000 0.483136
vt 1.000000 0.966273
vt 0.994412 0.966273
vt 0.944121 0.483136
vt 0.944121 0.966273
vt 0.903990 0.699382
vt 0.909578 0.699382
vt 0.909578 0.742327
vt 0.903990 0.742327
vt 0.825763 1.000000
vt 0.820175 1.000000
vt 0.820175 0.957055
vt 0.825763 0.957055
vt 0.910594 0.483136
vt 0.932946 0.966273
vt 0.868439 0.699382
vt 0.853701 0.742327
vt 0.853701 0.701926
vt 0.868439 0.701926
vt 0.868439 0.700654
vt 0.876053 1.000000
vt 0.876053 0.957055
vt 0.903990 0.527600
vt 0.909578 0.527600
vt 0.820175 0.785273
vt 0.825763 0.785273
vt 0.820175 0.699382
vt 0.834913 0.699382
vt 0.836468 0.700654
vt 0.840822 0.701926
vt 0.820175 0.742327
vt 0.887229 1.000000
vt 0.887229 0.957055
vt 0.000000 0.000000
vt 0.868439 0.527600
vt 0.868439 0.698110
vt 0.868439 0.696838
vt 0.853701 0.696838
vt 0.853701 0.658980
vt 0.868326 0.657574
vt 0.868322 0.656279
vt 0.868318 0.654983
vt 0.868315 0.653686
vt 0.868311 0.652390
vt 0.853701 0.653893
vt 0.853701 0.616035
vt 0.867626 0.616244
vt 0.867630 0.614845
vt 0.867632 0.613447
vt 0.867630 0.612048
vt 0.867627 0.610649
vt 0.853701 0.610947
vt 0.853701 0.573089
vt 0.868439 0.573089
vt 0.868439 0.571817
vt 0.868439 0.570546
vt 0.868439 0.569274
vt 0.868439 0.568002
vt 0.853701 0.568002
vt 0.853701 0.530144
vt 0.868324 0.530832
vt 0.868381 0.529233
vt 0.252749 0.485048
vt 0.252749 0.533361
vt 0.247161 0.533361
vt 0.247161 0.485048
vt 0.903990 0.484655
vt 0.909578 0.484655
vt 0.722130 0.653760
vt 0.543319 0.653760
vt 0.543319 0.648393
vt 0.722130 0.648393
vt 0.825763 0.742327
vt 0.820175 0.527600
vt 0.834913 0.527600
vt 0.836544 0.529321
vt 0.840887 0.531020
vt 0.840822 0.568002
vt 0.836468 0.569274
vt 0.834913 0.570546
vt 0.836468 0.571817
vt 0.840822 0.573089
vt 0.841190 0.610615
vt 0.837335 0.612031
vt 0.835926 0.613431
vt 0.837336 0.614830
vt 0.841191 0.616249
vt 0.840882 0.652372
vt 0.836606 0.653612
vt 0.835071 0.654938
vt 0.836598 0.656203
vt 0.840875 0.657552
vt 0.840822 0.696838
vt 0.836468 0.698110
vt 0.876053 0.785273
vt 0.887229 0.785273
vt 0.763506 0.484655
vt 0.813797 0.484655
vt 0.813796 0.528359
vt 0.778244 0.528359
vt 0.778244 0.527087
vt 0.778244 0.525815
vt 0.763505 0.525815
vt 0.853701 0.484655
vt 0.868439 0.526328
vt 0.868439 0.525056
vt 0.853701 0.525056
vt 0.729318 0.484796
vt 0.761509 0.525815
vt 0.750627 0.525815
vt 0.746272 0.527087
vt 0.744717 0.528359
vt 0.729171 0.528359
vt 0.523693 0.483610
vt 0.523693 0.655391
vt 0.518110 0.655391
vt 0.518110 0.483610
vt 0.466524 0.983655
vt 0.516813 0.983655
vt 0.516813 0.989023
vt 0.460936 0.989023
vt 0.994412 0.000000
vt 1.000000 0.000000
vt 0.532846 0.483610
vt 0.532846 0.531923
vt 0.527258 0.531923
vt 0.527258 0.483610
vt 0.627137 0.326409
vt 0.638312 0.326409
vt 0.876053 0.742327
vt 0.820175 0.484655
vt 0.840822 0.525056
vt 0.836468 0.526328
vt 0.887229 0.742327
vt 0.763359 0.000000
vt 0.813649 0.000000
vt 0.813649 0.484655
vt 0.763359 0.484655
vt 0.813796 0.700141
vt 0.778244 0.700141
vt 0.778185 0.698509
vt 0.778129 0.696909
vt 0.763505 0.697597
vt 0.763505 0.659739
vt 0.778244 0.659739
vt 0.778244 0.658468
vt 0.778244 0.657196
vt 0.778244 0.655924
vt 0.778244 0.654652
vt 0.763505 0.654652
vt 0.763505 0.616794
vt 0.777431 0.617092
vt 0.777435 0.615693
vt 0.777436 0.614294
vt 0.777435 0.612896
vt 0.777430 0.611498
vt 0.763505 0.611706
vt 0.763505 0.573849
vt 0.778116 0.575351
vt 0.778120 0.574055
vt 0.778123 0.572758
vt 0.778127 0.571463
vt 0.778131 0.570167
vt 0.763505 0.568761
vt 0.763505 0.530903
vt 0.778244 0.530903
vt 0.778244 0.529631
vt 0.944121 0.000000
vt 0.746272 0.529631
vt 0.750626 0.530903
vt 0.750680 0.570208
vt 0.746405 0.571572
vt 0.744880 0.572844
vt 0.746413 0.574164
vt 0.750687 0.575389
vt 0.751000 0.611491
vt 0.747158 0.612911
vt 0.745756 0.614312
vt 0.747158 0.615715
vt 0.750999 0.617132
vt 0.750626 0.654652
vt 0.746272 0.655924
vt 0.744717 0.657196
vt 0.746272 0.658468
vt 0.750626 0.659739
vt 0.750691 0.696720
vt 0.746349 0.698419
vt 0.744717 0.700141
vt 0.729171 0.700141
vt 0.045351 0.485048
vt 0.000000 0.484908
vt 0.000005 0.000139
vt 0.045351 0.000000
vt 0.751554 0.000127
vt 0.729171 0.484503
vt 0.466524 0.811873
vt 0.460936 0.806505
vt 0.727718 0.648393
vt 0.643900 0.326409
vt 0.649488 0.975854
vt 0.593609 0.975854
vt 0.593756 0.653760
vt 0.616107 0.653760
vt 0.516813 0.811873
vt 0.516813 0.806505
vt 0.537731 0.648393
vt 0.621549 0.326409
vt 0.793036 0.766097
vt 0.804212 0.766097
vt 0.804212 0.767170
vt 0.793036 0.767170
vt 0.932946 0.000000
vt 0.661097 0.869570
vt 0.712061 0.869570
vt 0.711725 0.912951
vt 0.661436 0.912951
vt 0.819883 0.000139
vt 0.819883 0.484515
vt 0.820030 0.484794
vt 0.820175 0.528359
vt 0.820175 0.700141
vt 0.813797 0.743846
vt 0.763506 0.743846
vt 0.763505 0.702685
vt 0.778244 0.702685
vt 0.778244 0.701413
vt 0.729318 0.743704
vt 0.746272 0.701413
vt 0.750626 0.702685
vt 0.224163 0.485048
vt 0.224162 0.000000
vt 0.000000 0.485048
vt 0.189987 0.485048
vt 0.106169 0.808180
vt 0.083818 0.808180
vt 0.786739 0.766908
vt 0.787449 0.766097
vt 0.786724 0.743846
vt 0.787449 0.744625
vt 0.537731 0.975854
vt 0.571112 0.653760
vt 0.593463 0.653760
vt 0.809800 0.766097
vt 0.810509 0.766908
vt 0.639039 0.326250
vt 0.627863 0.326250
vt 0.543708 0.004096
vt 0.723194 0.004096
vt 0.649632 0.912814
vt 0.649488 0.869246
vt 0.537077 0.483654
vt 0.537077 0.533267
vt 0.532846 0.532566
vt 0.533511 0.483610
vt 0.718103 0.869246
vt 0.717959 0.912811
vt 1.000000 1.000000
vt 0.000000 1.000000
vt 0.820030 0.743706
vt 0.854070 0.000000
vt 0.904361 0.000000
vt 0.904361 0.484655
vt 0.854070 0.484655
vt 0.269513 0.484908
vt 0.269508 0.000139
vt 0.649488 0.697464
vt 0.661097 0.697140
vt 0.809800 0.744625
vt 0.810525 0.743846
vt 0.621566 0.326409
vt 0.537731 0.003860
vt 0.645336 0.326409
vt 0.729171 0.003860
vt 0.543708 0.000000
vt 0.723194 0.000000
vt 0.527258 0.656039
vt 0.523693 0.656039
vt 0.735084 0.749588
vt 0.729171 0.743854
vt 0.786344 0.743846
vt 0.786724 0.749588
vt 0.712061 0.697140
vt 0.718103 0.697464
vt 0.910594 0.000139
vt 0.910594 0.484515
vt 0.819883 0.000152
vt 0.842265 0.484528
vt 0.661436 0.653760
vt 0.711725 0.653760
vt 0.353324 0.483610
vt 0.377126 0.483610
vt 0.460936 0.807193
vt 0.269513 0.807193
vt 0.494104 0.483610
vt 0.518110 0.483667
vt 0.518110 0.806470
vt 0.247161 0.807886
vt 0.223155 0.807943
vt 0.247161 0.485083
vt 0.256979 0.485048
vt 0.256979 0.534660
vt 0.253414 0.534705
vt 0.252749 0.485748
vt 0.729171 0.927751
vt 0.735084 0.922017
vt 0.717959 0.653899
vt 0.649632 0.653896
vt 0.786724 0.922017
vt 0.786344 0.927759
vt 0.166667 0.000000
vt 0.166667 1.000000
vt 0.833333 0.000000
vt 0.833333 1.000000
vt 0.493028 0.000000
vt 0.537731 0.000000
vt 0.537731 0.483610
vt 0.493028 0.483610
vt 0.314216 0.000000
vt 0.314216 0.483610
vt 0.269513 0.000000
vt 0.269513 0.483610
vn 1.000000 0.000000 0.000000
vn 0.000000 0.000000 -1.000000
vn 0.000000 0.000000 1.000000
vn 0.000000 1.000000 0.000000
vn 0.761400 -0.648300 0.000000
vn 0.956700 -0.290900 0.000000
vn -0.007200 0.000000 1.000000
vn -1.000000 -0.000000 0.000000
vn -0.003100 0.010100 0.999900
vn -0.007200 0.004700 1.000000
vn 0.000000 -1.000000 0.000000
vn -0.956700 -0.290900 0.000000
vn -0.761400 -0.648300 0.000000
vn -0.000000 0.010100 0.999900
vn -0.003200 0.999000 -0.044300
vn -1.000000 0.006300 -0.000100
vn 0.970100 0.000000 0.242500
vn -0.004900 0.000000 -1.000000
vn -0.999700 -0.023300 0.000000
vn -0.005300 -0.037500 0.999300
vn 0.000000 -0.051300 0.998700
vn 0.007200 0.000000 1.000000
vn 0.005100 0.007300 1.000000
vn 0.000000 0.999000 -0.044300
vn 0.000000 -0.995000 0.099500
vn 0.016800 0.083900 -0.996300
vn 0.292900 -0.001700 -0.956100
vn -0.970100 0.000000 0.242500
vn -0.016800 0.083900 -0.996300
vn 0.000000 -1.000000 0.000300
vn -0.004200 0.014400 -0.999900
vn -0.004200 -0.029900 -0.999500
vn -0.003200 -1.000000 0.000000
vn 0.005300 -0.037500 0.999300
vn 0.003200 0.999000 -0.044300
vn 0.000000 0.017500 -0.999800
vn 0.000000 -0.308200 -0.951300
vn -0.292900 -0.001700 -0.956100
vn 0.053000 -0.998500 -0.012800
vn -0.053000 -0.998500 -0.012800
vn 0.000000 -0.987600 0.157000
vn -0.023100 -0.006000 0.999700
vn 0.000000 -0.036500 -0.999300
vn 0.003200 -1.000000 0.000000
vn 0.999700 -0.023300 0.000000
vn 1.000000 0.006300 -0.000100
vn 0.004900 0.000000 -1.000000
vn 0.000000 0.995100 -0.098800
vn -0.970300 -0.000400 -0.242000
vn 0.970300 -0.000400 -0.242000
vn 0.000000 0.078900 0.996900
vn 0.004200 -0.029900 -0.999500
vn 0.004200 0.014400 -0.999900
vn 0.023000 -0.006000 0.999700
vn 0.000000 -0.999000 0.044400
g Room_Cube.001_Wall
usemtl Wall
s off
f 1/1/1 2/2/1 3/3/1 4/4/1
f 5/5/1 1/1/1 4/4/1 6/6/1
f 7/7/2 8/8/2 2/9/2 1/10/2
f 4/11/3 3/12/3 9/13/3 10/14/3
f 11/15/1 5/5/1 6/6/1 12/16/1
f 13/17/2 7/7/2 1/10/2 5/18/2 14/19/2 15/20/2 16/21/2
f 6/22/3 4/11/3 10/14/3 17/23/3
f 18/24/2 19/25/2 8/8/2 7/7/2
f 10/14/3 9/13/3 20/26/3 21/27/3
f 22/28/2 24/29/2 25/30/2 26/31/2 14/19/2 5/18/2 11/32/2
f 12/33/3 6/22/3 17/23/3 23/34/3
f 27/35/4 28/35/4 13/35/4 16/35/4
f 29/36/2 18/24/2 7/7/2 13/17/2 30/37/2 31/38/2 32/39/2 33/40/2 34/41/2 35/42/2 36/43/2 37/44/2 38/45/2 39/46/2 40/47/2 41/48/2 42/49/2 43/50/2 44/51/2 45/52/2 46/53/2 47/54/2 48/55/2 49/56/2 50/57/2 51/58/2 52/59/2 53/60/2 54/61/2 55/62/2 56/63/2
f 57/35/1 58/35/1 59/35/1 60/35/1 15/35/1 14/35/1 26/35/1
f 60/35/4 27/35/4 16/35/4 15/35/4
f 17/64/1 10/65/1 61/66/1 62/67/1
f 63/68/2 64/69/2 19/25/2 18/24/2
f 10/70/4 21/71/4 66/72/4 61/73/4
f 21/27/3 20/26/3 65/32/3 67/74/3
f 68/75/2 70/76/2 71/77/2 72/78/2 54/61/2 53/60/2 73/79/2 74/80/2 75/81/2 76/82/2 77/83/2 47/54/2 46/53/2 78/84/2 79/85/2 80/86/2 81/87/2 82/88/2 40/47/2 39/46/2 83/89/2 84/90/2 85/91/2 86/92/2 87/93/2 33/40/2 32/39/2 88/94/2 89/95/2 24/29/2 22/28/2
f 90/35/5 91/35/5 25/35/5 24/35/5
f 91/35/6 57/35/6 26/35/6 25/35/6
f 23/34/3 17/23/3 92/96/3 69/97/3
f 93/98/7 94/99/7 95/100/7 28/101/7 27/102/7 60/103/7 59/104/7
f 28/35/4 96/35/4 30/35/4 13/35/4
f 97/35/4 98/35/4 29/35/4 56/35/4
f 99/105/2 63/68/2 18/24/2 29/36/2 100/106/2 101/107/2 102/108/2
f 96/35/4 103/35/4 31/35/4 30/35/4
f 88/35/8 32/35/8 31/35/8 103/35/8 104/35/8 105/35/8
f 106/35/1 107/35/1 108/35/1 34/35/1 33/35/1 87/35/1
f 108/35/4 109/35/4 35/35/4 34/35/4
f 109/35/4 110/35/4 36/35/4 35/35/4
f 110/35/4 111/35/4 37/35/4 36/35/4
f 111/35/4 112/35/4 38/35/4 37/35/4
f 83/35/8 39/35/8 38/35/8 112/35/8 113/35/8 114/35/8
f 115/35/1 116/35/1 117/35/1 48/35/1 47/35/1 77/35/1
f 117/35/4 118/35/4 49/35/4 48/35/4
f 118/35/4 119/35/4 50/35/4 49/35/4
f 119/35/4 120/35/4 51/35/4 50/35/4
f 120/35/4 121/35/4 52/35/4 51/35/4
f 73/35/8 53/35/8 52/35/8 121/35/8 122/35/8 123/35/8
f 124/35/1 125/35/1 126/35/1 55/35/1 54/35/1 72/35/1
f 126/35/4 97/35/4 56/35/4 55/35/4
f 127/109/9 58/110/9 57/111/9 91/112/9 90/113/9 128/114/9
f 58/110/10 127/109/10 93/98/10 59/104/10
f 92/115/11 17/116/11 62/117/11 129/118/11
f 62/119/2 61/120/2 130/121/2 131/122/2
f 67/123/8 65/124/8 64/2/8 63/1/8
f 21/125/8 92/126/8 129/127/8 66/128/8
f 61/73/4 66/72/4 132/129/4 133/130/4
f 92/96/3 21/27/3 67/74/3 134/131/3
f 135/132/2 99/105/2 102/108/2 137/133/2 138/134/2 70/76/2 68/75/2
f 139/35/5 140/35/5 71/35/5 70/35/5
f 140/35/6 124/35/6 72/35/6 71/35/6
f 123/35/12 141/35/12 74/35/12 73/35/12
f 141/35/13 142/35/13 75/35/13 74/35/13
f 142/35/5 143/35/5 76/35/5 75/35/5
f 143/35/6 115/35/6 77/35/6 76/35/6
f 114/35/12 144/35/12 84/35/12 83/35/12
f 144/35/13 145/35/13 85/35/13 84/35/13
f 145/35/5 146/35/5 86/35/5 85/35/5
f 146/35/6 106/35/6 87/35/6 86/35/6
f 105/35/12 147/35/12 89/35/12 88/35/12
f 147/35/13 90/35/13 24/35/13 89/35/13
f 69/97/3 92/96/3 134/131/3 136/135/3
f 148/136/8 149/137/8 94/138/8 93/139/8
f 28/101/3 95/100/3 151/140/3 98/141/3 97/142/3 126/143/3 125/144/3 122/145/3 121/146/3 120/147/3 119/148/3 118/149/3 117/150/3 116/151/3 152/152/3 153/153/3 154/154/3 155/155/3 156/156/3 157/157/3 158/158/3 113/159/3 112/160/3 111/161/3 110/162/3 109/163/3 108/164/3 107/165/3 104/166/3 103/167/3 96/168/3
f 98/35/4 159/35/4 100/35/4 29/35/4
f 134/169/8 67/123/8 63/1/8 99/5/8
f 159/35/4 160/35/4 101/35/4 100/35/4
f 137/35/8 102/35/8 101/35/8 160/35/8 161/35/8 162/35/8
f 128/114/14 90/113/14 147/170/14 105/171/14 104/166/14 107/165/14 106/172/14 146/173/14 145/174/14 144/175/14 114/176/14 113/159/14 158/158/14 163/177/14 164/178/14 165/179/14 166/180/14 167/181/14 152/152/14 116/151/14 115/182/14 143/183/14 142/184/14 141/185/14 123/186/14 122/145/14 125/144/14 124/187/14 140/188/14 139/189/14 168/190/14
f 169/191/15 170/192/15 127/193/15 128/194/15
f 170/195/16 148/136/16 93/139/16 127/196/16
f 129/197/2 62/119/2 131/122/2 171/198/2
f 130/199/4 61/73/4 133/130/4 172/200/4
f 131/201/17 130/202/17 172/203/17 173/204/17
f 66/205/2 129/197/2 171/198/2 174/206/2
f 66/72/4 174/207/4 175/208/4 132/129/4
f 133/209/2 132/210/2 176/211/2 177/212/2
f 136/213/8 134/169/8 99/5/8 135/15/8
f 162/35/12 178/35/12 138/35/12 137/35/12
f 178/35/13 139/35/13 70/35/13 138/35/13
f 179/214/18 180/215/18 149/216/18 148/217/18
f 149/137/19 181/218/19 182/219/19 94/138/19
f 182/220/20 150/221/20 95/100/20 94/99/20
f 95/100/21 150/221/21 183/222/21 151/140/21
f 98/141/22 151/140/22 184/223/22 185/224/22 161/225/22 160/226/22 159/227/22
f 161/225/23 185/224/23 198/228/23 168/190/23 139/189/23 178/229/23 162/230/23
f 186/231/24 169/191/24 128/194/24 168/232/24
f 171/233/25 131/234/25 173/235/25 187/236/25
f 133/209/26 177/212/26 188/237/26 172/238/26
f 172/238/27 188/237/27 201/239/27 173/240/27
f 174/202/28 171/241/28 187/242/28 175/243/28
f 176/211/29 132/210/29 175/244/29 189/245/29
f 177/246/30 176/247/30 190/248/30 191/249/30
f 179/214/31 148/217/31 170/250/31 169/251/31
f 192/252/8 191/253/8 180/254/8 179/255/8
f 149/216/32 180/215/32 193/256/32 181/257/32
f 181/35/33 193/124/33 150/258/33 182/259/33
f 193/35/11 194/124/11 183/258/11 150/259/11
f 184/223/34 151/140/34 183/222/34 195/260/34
f 185/261/1 184/262/1 196/263/1 197/264/1
f 199/265/35 186/231/35 168/232/35 198/266/35
f 186/267/36 200/268/36 179/214/36 169/251/36
f 187/269/37 173/240/37 201/239/37 202/270/37
f 187/269/38 202/270/38 189/245/38 175/244/38
f 176/247/39 189/271/39 203/272/39 190/248/39
f 188/273/40 177/246/40 191/249/40 204/274/40
f 191/249/41 190/248/41 205/275/41 180/276/41
f 206/128/4 192/277/4 179/278/4 200/115/4
f 192/279/42 207/280/42 204/281/42 191/282/42
f 205/283/43 194/284/43 193/256/43 180/215/43
f 194/35/44 208/124/44 195/258/44 183/259/44
f 184/262/45 195/285/45 208/286/45 196/263/45
f 198/287/46 185/261/46 197/264/46 199/288/46
f 197/289/47 196/290/47 205/283/47 200/268/47
f 202/291/48 201/292/48 207/293/48 209/294/48
f 201/295/49 188/296/49 204/297/49 207/198/49
f 189/298/50 202/299/50 209/234/50 203/300/50
f 190/301/1 206/302/1 200/303/1 205/304/1
f 209/305/51 207/280/51 192/279/51 206/306/51
f 205/283/52 196/290/52 208/307/52 194/284/52
f 197/289/53 200/268/53 186/267/53 199/308/53
f 209/305/54 206/306/54 190/309/54 203/310/54
f 163/35/1 158/35/1 157/35/1 41/35/1 40/35/1 82/35/1
f 164/35/6 163/35/6 82/35/6 81/35/6
f 157/35/4 156/35/4 42/35/4 41/35/4
f 165/35/5 164/35/5 81/35/5 80/35/5
f 156/35/4 155/35/4 43/35/4 42/35/4
f 166/35/13 165/35/13 80/35/13 79/35/13
f 155/35/4 154/35/4 44/35/4 43/35/4
f 167/35/12 166/35/12 79/35/12 78/35/12
f 154/35/4 153/35/4 45/35/4 44/35/4
f 78/35/8 46/35/8 45/35/8 153/35/8 152/35/8 167/35/8
g Room_Cube.001_Floor
usemtl Floor
f 2/35/4 8/311/4 9/312/4 3/259/4
f 8/311/4 19/313/4 20/314/4 9/312/4
f 19/313/4 64/124/4 65/258/4 20/314/4
g Room_Cube.001_Ceiling
usemtl Ceiling
f 22/315/55 11/316/55 12/317/55 23/318/55
f 68/319/55 22/315/55 23/318/55 69/320/55
f 135/321/55 68/319/55 69/320/55 136/322/55
