# Blender v2.74 (sub 0) OBJ File: 'room.blend'
# www.blender.org
mtllib room.mtl
o Room_Cube.001
v -12.000000 0.000000 22.500000
v -12.000000 8.000000 22.500000
v -12.000000 0.000000 -22.500000
v -12.000000 6.000000 -22.500000
v 12.000000 0.000000 22.500000
v 12.000000 8.000000 22.500000
v 12.000000 0.000000 -22.500000
v 12.000000 6.000000 -22.500000
v -8.000000 6.000000 -22.500000
v 8.000000 6.000000 -22.500000
v 8.000000 0.000000 -22.500000
v -8.000000 0.000000 -22.500000
v 8.000000 8.000000 22.500000
v -8.000000 8.000000 22.500000
v -8.000000 0.000000 22.500000
v 8.000000 0.000000 22.500000
v -12.000000 0.500000 22.500000
v -12.000000 5.000000 22.500000
v -12.000000 5.000000 -22.500000
v -12.000000 0.500000 -22.500000
v 12.000000 5.000000 -22.500000
v 12.000000 0.500000 -22.500000
v 12.000000 5.000000 22.500000
v 12.000000 0.500000 22.500000
v 8.000000 0.500000 22.500000
v 8.000000 5.000000 22.500000
v -8.000000 0.500000 22.500000
v -8.000000 5.000000 22.500000
v -8.000000 0.500000 -22.500000
v -8.000000 5.000000 -22.500000
v 8.000000 0.500000 -22.500000
v 8.000000 5.000000 -22.500000
v -8.000000 0.500000 -23.000000
v -8.000000 5.000000 -23.000000
v 8.000000 0.500000 -23.000000
v 8.000000 5.000000 -23.000000
v -8.500000 0.500000 -23.000000
v -8.500000 5.500000 -23.000000
v 8.500000 0.500000 -23.000000
v 8.500000 5.500000 -23.000000
v -0.500000 0.500000 -53.000000
v 0.500000 0.500000 -53.000000
v -1.000000 0.500000 -53.000000
v -1.000000 2.500000 -53.000000
v 1.000000 0.500000 -53.000000
v 1.000000 2.500000 -53.000000
v -12.057734 -0.057735 22.557735
v -12.057503 8.059117 22.556551
v -12.057734 -0.057735 -22.557735
v -12.057970 6.056322 -22.558880
v 12.057734 -0.057735 22.557735
v 12.057503 8.059117 22.556551
v 12.057734 -0.057735 -22.557735
v 12.057970 6.056322 -22.558880
v -8.000000 6.069121 -22.572262
v 8.000000 6.069121 -22.572262
v 8.000000 -0.070708 -22.570709
v -8.000000 -0.070708 -22.570709
v 8.000000 8.072262 22.569122
v -8.000000 8.072262 22.569122
v -8.000000 -0.070708 22.570709
v 8.000000 -0.070708 22.570709
v -12.070708 0.500000 22.570709
v -12.070708 5.000000 22.570709
v -12.070708 5.000000 -22.570709
v -12.070708 0.500000 -22.570709
v 12.070708 5.000000 -22.570709
v 12.070708 0.500000 -22.570709
v 12.070708 5.000000 22.570709
v 12.070708 0.500000 22.570709
v 8.000000 0.500000 22.600000
v 8.000000 5.000000 22.600000
v -8.000000 0.500000 22.600000
v -8.000000 5.000000 22.600000
v -8.030149 0.469851 -22.590450
v -8.030149 5.030149 -22.590450
v 8.030149 0.469851 -22.590450
v 8.030149 5.030149 -22.590450
v -8.030149 0.409549 -22.969851
v -8.030149 5.030149 -22.909550
v 8.030149 0.409549 -22.969851
v 8.030149 5.030149 -22.909550
v -8.565001 0.443446 -22.949247
v -8.564226 5.559300 -22.951443
v 8.565001 0.443446 -22.949247
v 8.564226 5.559300 -22.951443
v -0.500000 0.400000 -53.000000
v 0.500000 0.400000 -53.000000
v -1.063469 0.424372 -53.015865
v -1.064867 2.572399 -53.023457
v 1.063469 0.424372 -53.015865
v 1.064867 2.572399 -53.023457
vn 1.000000 0.000000 0.000000
vn 0.000000 0.000000 1.000000
vn -1.000000 0.000000 0.000000
vn 0.000000 0.000000 -1.000000
vn 0.000000 1.000000 0.000000
vn 0.000000 -0.999000 0.044400
vn 0.000000 -1.000000 0.000000
vn 0.000000 -0.995000 0.099500
vn -0.970100 0.000000 0.242500
vn 0.970100 0.000000 0.242500
vn -0.999700 -0.023300 0.000000
vn 0.004200 -0.029900 -0.999500
vn 0.999700 -0.023300 0.000000
vn -0.005300 -0.037500 0.999300
vn 0.003200 -1.000000 0.000000
vn -0.003200 0.999000 -0.044300
vn 0.003200 0.999000 -0.044300
vn 0.000000 0.999000 -0.044300
vn -0.003200 -1.000000 0.000000
vn 0.005300 -0.037500 0.999300
vn 0.000000 -0.051300 0.998700
vn -0.004200 -0.029900 -0.999500
vn 0.000000 -0.036500 -0.999300
vn 0.000000 0.017500 -0.999800
vn -0.004200 0.014400 -0.999900
vn -0.004900 0.000000 -1.000000
vn 0.000000 0.010100 0.999900
vn 0.005200 0.007400 1.000000
vn 0.007200 0.000000 1.000000
vn -0.005200 0.007400 1.000000
vn -0.007200 0.000000 1.000000
vn 1.000000 0.006300 -0.000100
vn 0.004200 0.014400 -0.999900
vn 0.004900 0.000000 -1.000000
vn -1.000000 0.006300 -0.000100
vn 0.000000 -0.987600 0.157000
vn 0.053000 -0.998500 -0.012800
vn 0.000000 0.078900 0.996900
vn 0.023000 -0.006000 0.999700
vn -0.023000 -0.006000 0.999700
vn -0.053000 -0.998500 -0.012800
vn 0.000000 0.995100 -0.098800
vn 0.970300 -0.000400 -0.242000
vn -0.970300 -0.000400 -0.242000
vn 0.000000 -1.000000 0.000300
vn 0.292900 -0.001700 -0.956100
vn -0.292900 -0.001700 -0.956100
vn 0.000000 -0.308200 -0.951300
vn 0.016800 0.083900 -0.996300
vn -0.016800 0.083900 -0.996300
usemtl None
s off
f 17//1 1//1 3//1 20//1
f 31//2 11//2 7//2 22//2
f 22//3 7//3 5//3 24//3
f 27//4 15//4 1//4 17//4
f 16//5 5//5 7//5 11//5
f 14//6 2//6 4//6 9//6
f 6//6 13//6 10//6 8//6
f 13//6 14//6 9//6 10//6
f 1//5 15//5 12//5 3//5
f 15//5 16//5 11//5 12//5
f 24//4 5//4 16//4 25//4
f 25//4 16//4 15//4 27//4
f 20//2 3//2 12//2 29//2
f 29//2 12//2 11//2 31//2
f 9//2 30//2 32//2 10//2
f 4//2 19//2 30//2 9//2
f 19//2 20//2 29//2 30//2
f 13//4 26//4 28//4 14//4
f 26//4 25//4 27//4 28//4
f 6//4 23//4 26//4 13//4
f 23//4 24//4 25//4 26//4
f 14//4 28//4 18//4 2//4
f 28//4 27//4 17//4 18//4
f 8//3 21//3 23//3 6//3
f 21//3 22//3 24//3 23//3
f 10//2 32//2 21//2 8//2
f 32//2 31//2 22//2 21//2
f 2//1 18//1 19//1 4//1
f 18//1 17//1 20//1 19//1
f 29//5 31//5 35//5 33//5
f 32//7 30//7 34//7 36//7
f 31//3 32//3 36//3 35//3
f 30//1 29//1 33//1 34//1
f 35//5 39//5 45//5 42//5
f 36//4 34//4 38//4 40//4
f 35//4 36//4 40//4 39//4
f 34//4 33//4 37//4 38//4
f 37//5 33//5 41//5 43//5
f 40//8 38//8 44//8 46//8
f 39//9 40//9 46//9 45//9
f 38//10 37//10 43//10 44//10
f 33//5 35//5 42//5 41//5
f 66//11 49//11 47//11 63//11
f 68//12 53//12 57//12 77//12
f 70//13 51//13 53//13 68//13
f 63//14 47//14 61//14 73//14
f 57//15 53//15 51//15 62//15
f 55//16 50//16 48//16 60//16
f 54//17 56//17 59//17 52//17
f 56//18 55//18 60//18 59//18
f 49//19 58//19 61//19 47//19
f 58//7 57//7 62//7 61//7
f 71//20 62//20 51//20 70//20
f 73//21 61//21 62//21 71//21
f 75//22 58//22 49//22 66//22
f 77//23 57//23 58//23 75//23
f 56//24 78//24 76//24 55//24
f 55//25 76//25 65//25 50//25
f 76//26 75//26 66//26 65//26
f 60//27 74//27 72//27 59//27
f 74//2 73//2 71//2 72//2
f 59//28 72//28 69//28 52//28
f 72//29 71//29 70//29 69//29
f 48//30 64//30 74//30 60//30
f 64//31 63//31 73//31 74//31
f 52//32 69//32 67//32 54//32
f 69//1 70//1 68//1 67//1
f 54//33 67//33 78//33 56//33
f 67//34 68//34 77//34 78//34
f 50//35 65//35 64//35 48//35
f 65//3 66//3 63//3 64//3
f 79//36 81//36 77//36 75//36
f 82//5 80//5 76//5 78//5
f 81//1 82//1 78//1 77//1
f 80//3 79//3 75//3 76//3
f 88//37 91//37 85//37 81//37
f 86//38 84//38 80//38 82//38
f 85//39 86//39 82//39 81//39
f 84//40 83//40 79//40 80//40
f 89//41 87//41 79//41 83//41
f 92//42 90//42 84//42 86//42
f 91//43 92//43 86//43 85//43
f 90//44 89//44 83//44 84//44
f 87//45 88//45 81//45 79//45
f 41//4 42//4 88//4 87//4
f 44//46 43//46 89//46 90//46
f 45//47 46//47 92//47 91//47
f 46//48 44//48 90//48 92//48
f 43//49 41//49 87//49 89//49
f 42//50 45//50 91//50 88//50
