# Blender v2.74 (sub 0) OBJ File: 'room.blend'
# www.blender.org
mtllib room.mtl
o Cube_Cube.001
v -12.000000 0.000000 22.500000
v -12.000000 8.000000 22.500000
v -12.000000 0.000000 -22.500000
v -12.000000 6.000000 -22.500000
v 12.000000 0.000000 22.500000
v 12.000000 8.000000 22.500000
v 12.000000 0.000000 -22.500000
v 12.000000 6.000000 -22.500000
v -12.057734 -0.057735 22.557735
v -12.057503 8.059117 22.556551
v -12.057734 -0.057735 -22.557735
v -12.057970 6.056322 -22.558880
v 12.057734 -0.057735 22.557735
v 12.057503 8.059117 22.556551
v 12.057734 -0.057735 -22.557735
v 12.057970 6.056322 -22.558880
vn 1.000000 0.000000 0.000000
vn 0.000000 0.000000 1.000000
vn -1.000000 0.000000 0.000000
vn 0.000000 0.000000 -1.000000
vn 0.000000 1.000000 0.000000
vn 0.000000 -0.999000 0.044400
vn 0.000000 -0.000200 -1.000000
vn 0.000000 0.000100 1.000000
vn 0.000000 -1.000000 0.000000
vn 0.000000 0.999000 -0.044300
usemtl None
s off
f 2//1 1//1 3//1 4//1
f 4//2 3//2 7//2 8//2
f 8//3 7//3 5//3 6//3
f 6//4 5//4 1//4 2//4
f 1//5 5//5 7//5 3//5
f 6//6 2//6 4//6 8//6
f 12//3 11//3 9//3 10//3
f 16//7 15//7 11//7 12//7
f 14//1 13//1 15//1 16//1
f 10//8 9//8 13//8 14//8
f 11//9 15//9 13//9 9//9
f 16//10 12//10 10//10 14//10
